HIERARCHY
ROOT hip
{
  OFFSET 0.0 0.0 0.0
  CHANNELS 6 Xposition Yposition Zposition Zrotation Yrotation Xrotation
  JOINT abdomen
  {
    OFFSET 0.0 20.6881 -0.73152
    CHANNELS 3 Zrotation Xrotation Yrotation
    JOINT chest
    {
      OFFSET 0.0 11.7043 -0.48768
      CHANNELS 3 Zrotation Xrotation Yrotation
      JOINT neck
      {
        OFFSET 0.0 22.1894 -2.19456
        CHANNELS 3 Zrotation Xrotation Yrotation
        JOINT head
        {
          OFFSET -0.24384 7.07133 1.2192
          CHANNELS 3 Zrotation Xrotation Yrotation
          JOINT leftEye
          {
            OFFSET 4.14528 8.04674 8.04672
            CHANNELS 3 Zrotation Xrotation Yrotation
            End Site
            {
              OFFSET 1.0 0.0 0.0
            }
          }
          JOINT rightEye
          {
            OFFSET -3.6576 8.04674 8.04672
            CHANNELS 3 Zrotation Xrotation Yrotation
            End Site
            {
              OFFSET 1.0 0.0 0.0
            }
          }
        }
      }
      JOINT rCollar
      {
        OFFSET -2.68224 19.2634 -4.8768
        CHANNELS 3 Zrotation Xrotation Yrotation
        JOINT rShldr
        {
          OFFSET -8.77824 -1.95073 1.46304
          CHANNELS 3 Zrotation Xrotation Yrotation
          JOINT rForeArm
          {
            OFFSET -28.1742 -1.7115 0.48768
            CHANNELS 3 Zrotation Xrotation Yrotation
            JOINT rHand
            {
              OFFSET -22.5879 0.773209 7.07136
              CHANNELS 3 Zrotation Xrotation Yrotation
              JOINT rThumb1
              {
                OFFSET -1.2192 -0.487915 3.41376
                CHANNELS 3 Zrotation Xrotation Yrotation
                JOINT rThumb2
                {
                  OFFSET -3.37035 -0.52449 3.41376
                  CHANNELS 3 Zrotation Xrotation Yrotation
                  End Site
                  {
                    OFFSET -1.78271 -1.18214 1.43049
                  }
                }
              }
              JOINT rIndex1
              {
                OFFSET -7.75947 0.938293 5.60832
                CHANNELS 3 Zrotation Xrotation Yrotation
                JOINT rIndex2
                {
                  OFFSET -2.54057 -0.884171 1.56538
                  CHANNELS 3 Zrotation Xrotation Yrotation
                  End Site
                  {
                    OFFSET -1.62519 -0.234802 1.16502
                  }
                }
              }
              JOINT rMid1
              {
                OFFSET -8.24714 1.18213 3.41376
                CHANNELS 3 Zrotation Xrotation Yrotation
                JOINT rMid2
                {
                  OFFSET -3.10165 -0.590103 1.0647
                  CHANNELS 3 Zrotation Xrotation Yrotation
                  End Site
                  {
                    OFFSET -2.48547 -0.328903 0.83742
                  }
                }
              }
              JOINT rRing1
              {
                OFFSET -8.82822 0.546677 1.51678
                CHANNELS 3 Zrotation Xrotation Yrotation
                JOINT rRing2
                {
                  OFFSET -2.60934 -0.819778 -0.0198488
                  CHANNELS 3 Zrotation Xrotation Yrotation
                  End Site
                  {
                    OFFSET -2.33842 -0.294052 0.168128
                  }
                }
              }
              JOINT rPinky1
              {
                OFFSET -8.27202 -0.0477905 -0.4584
                CHANNELS 3 Zrotation Xrotation Yrotation
                JOINT rPinky2
                {
                  OFFSET -1.82734 -0.647385 -0.700984
                  CHANNELS 3 Zrotation Xrotation Yrotation
                  End Site
                  {
                    OFFSET -1.69225 -0.51767 -0.607171
                  }
                }
              }
            }
          }
        }
      }
      JOINT lCollar
      {
        OFFSET 2.68224 19.2634 -4.8768
        CHANNELS 3 Zrotation Xrotation Yrotation
        JOINT lShldr
        {
          OFFSET 8.77824 -1.95073 1.46304
          CHANNELS 3 Zrotation Xrotation Yrotation
          JOINT lForeArm
          {
            OFFSET 28.1742 -1.7115 0.48768
            CHANNELS 3 Zrotation Xrotation Yrotation
            JOINT lHand
            {
              OFFSET 22.5879 0.773209 7.07136
              CHANNELS 3 Zrotation Xrotation Yrotation
              JOINT lThumb1
              {
                OFFSET 1.2192 -0.487915 3.41376
                CHANNELS 3 Zrotation Xrotation Yrotation
                JOINT lThumb2
                {
                  OFFSET 3.37035 -0.52449 3.41376
                  CHANNELS 3 Zrotation Xrotation Yrotation
                  End Site
                  {
                    OFFSET 1.78271 -1.18214 1.43049
                  }
                }
              }
              JOINT lIndex1
              {
                OFFSET 7.75947 0.938293 5.60832
                CHANNELS 3 Zrotation Xrotation Yrotation
                JOINT lIndex2
                {
                  OFFSET 2.54057 -0.884171 1.56538
                  CHANNELS 3 Zrotation Xrotation Yrotation
                  End Site
                  {
                    OFFSET 1.62519 -0.234802 1.16502
                  }
                }
              }
              JOINT lMid1
              {
                OFFSET 8.24714 1.18213 3.41376
                CHANNELS 3 Zrotation Xrotation Yrotation
                JOINT lMid2
                {
                  OFFSET 3.10165 -0.590103 1.0647
                  CHANNELS 3 Zrotation Xrotation Yrotation
                  End Site
                  {
                    OFFSET 2.48547 -0.328903 0.83742
                  }
                }
              }
              JOINT lRing1
              {
                OFFSET 8.82822 0.546677 1.51678
                CHANNELS 3 Zrotation Xrotation Yrotation
                JOINT lRing2
                {
                  OFFSET 2.60934 -0.819778 -0.0198488
                  CHANNELS 3 Zrotation Xrotation Yrotation
                  End Site
                  {
                    OFFSET 2.33842 -0.294052 0.168128
                  }
                }
              }
              JOINT lPinky1
              {
                OFFSET 8.27202 -0.0477905 -0.4584
                CHANNELS 3 Zrotation Xrotation Yrotation
                JOINT lPinky2
                {
                  OFFSET 1.82734 -0.647385 -0.700984
                  CHANNELS 3 Zrotation Xrotation Yrotation
                  End Site
                  {
                    OFFSET 1.69225 -0.51767 -0.607171
                  }
                }
              }
            }
          }
        }
      }
    }
  }
  JOINT rButtock
  {
    OFFSET -8.77824 4.35084 1.2192
    CHANNELS 3 Zrotation Xrotation Yrotation
    JOINT rThigh
    {
      OFFSET 0.0 -1.70687 -2.19456
      CHANNELS 3 Zrotation Xrotation Yrotation
      JOINT rShin
      {
        OFFSET 0.0 -36.8199 0.73152
        CHANNELS 3 Zrotation Xrotation Yrotation
        JOINT rFoot
        {
          OFFSET 0.73152 -45.1104 -5.12064
          CHANNELS 3 Zrotation Xrotation Yrotation
          End Site
          {
            OFFSET -1.1221 -3.69964 12.103
          }
        }
      }
    }
  }
  JOINT lButtock
  {
    OFFSET 8.77824 4.35084 1.2192
    CHANNELS 3 Zrotation Xrotation Yrotation
    JOINT lThigh
    {
      OFFSET 0.0 -1.70687 -2.19456
      CHANNELS 3 Zrotation Xrotation Yrotation
      JOINT lShin
      {
        OFFSET 0.0 -36.8199 0.73152
        CHANNELS 3 Zrotation Xrotation Yrotation
        JOINT lFoot
        {
          OFFSET -0.73152 -45.1104 -5.12064
          CHANNELS 3 Zrotation Xrotation Yrotation
          End Site
          {
            OFFSET 1.1221 -3.69964 12.103
          }
        }
      }
    }
  }
}
MOTION
Frames: 4
Frame Time: 0.00833333
-20.53222 73.9012 20.760199999999998 -14.9269 19.4647 5.5123 8.00825 4.99881 3.01558 -1.79143 -1.68052 0.892448 4.50938 8.89306 -1.44687 -1.70059 -30.7135 -3.96624 -0.0 0.0 0.0 -0.0 0.0 0.0 5.98943e-14 7.75309e-14 -2.97866e-14 74.2181 26.1059 6.40603 -13.8362 -6.82204 25.2268 -0.16395 11.4642 1.63326 5.32924e-15 -4.77888e-09 2.04572e-09 1.60667e-11 -8.28253e-09 3.54072e-09 6.21742e-15 -4.77888e-09 2.04571e-09 7.73091 5.47488 0.417314 4.66311e-15 -4.77888e-09 2.04573e-09 2.90554 0.965183 0.102902 1.08804e-14 -4.77888e-09 2.04572e-09 10.2786 0.731801 0.0259123 -1.55414e-15 -4.77888e-09 2.04573e-09 2.22167 -0.733487 -0.20892 -5.666e-14 -1.19757e-13 4.46209e-14 -15.2452 -24.1473 14.9785 19.3557 -12.2224 -37.1379 0.02501 -4.53051 0.638044 3.27262e-09 4.2195e-09 -1.07761e-09 5.66557e-09 7.31041e-09 -1.85532e-09 3.27261e-09 4.21949e-09 -1.07759e-09 -7.73091 5.47488 -0.417314 3.27262e-09 4.21949e-09 -1.07761e-09 -2.90554 0.965183 -0.102902 3.27261e-09 4.21949e-09 -1.07761e-09 -10.2786 0.731801 -0.0259123 3.27262e-09 4.2195e-09 -1.07762e-09 -2.22167 -0.733487 0.20892 -2.03217e-16 0.0 -3.88251e-19 -11.5715 -11.5489 -9.32517 -0.181055 35.1112 0.990814 -2.70419 -5.49914 -17.7403 2.03217e-16 0.0 3.88251e-19 55.9625 -55.2063 47.2265 1.30563 63.585 -1.8466 -1.64061 -9.62665 -4.11645
-20.20928 74.1455 21.172399999999996 -15.0301 21.1891 5.3171 8.29078 4.69695 2.93753 -1.7231 -1.60433 0.867737 4.40753 8.88774 -1.64407 -1.76071 -30.5979 -4.3666 -0.0 0.0 0.0 -0.0 0.0 0.0 -1.05721e-15 2.36436e-13 -2.11954e-14 74.3177 26.0502 6.10999 -13.9475 -6.91205 25.4486 -0.155954 11.184 1.59229 1.39048e-09 -5.29353e-09 1.64325e-09 2.41611e-09 -9.15253e-09 2.83505e-09 1.39048e-09 -5.29353e-09 1.64323e-09 7.73091 5.47488 0.417314 1.39048e-09 -5.29353e-09 1.64325e-09 2.90554 0.965183 0.102902 1.39048e-09 -5.29354e-09 1.64324e-09 10.2786 0.731801 0.0259123 1.39047e-09 -5.29353e-09 1.64325e-09 2.22167 -0.733487 -0.20892 -1.19068e-13 -3.05388e-13 9.68353e-14 -15.2283 -24.2911 14.9612 19.3308 -12.1927 -37.0791 0.0196634 -4.01423 0.565081 4.15022e-09 5.28275e-09 -1.14806e-10 7.17547e-09 9.13955e-09 -1.88908e-10 4.15022e-09 5.28275e-09 -1.14778e-10 -7.73091 5.47488 -0.417314 4.15023e-09 5.28275e-09 -1.148e-10 -2.90554 0.965183 -0.102902 4.15022e-09 5.28275e-09 -1.14805e-10 -10.2786 0.731801 -0.0259123 4.15023e-09 5.28276e-09 -1.14811e-10 -2.22167 -0.733487 0.20892 -2.03217e-16 0.0 -3.88251e-19 -11.1221 -10.2789 -9.60604 -0.171831 34.2961 0.957548 -2.39283 -4.28885 -18.0681 2.03217e-16 0.0 3.88251e-19 55.7628 -55.0777 48.7633 1.29399 63.3673 -1.80986 -1.20209 -9.45324 -3.06802
-19.826999999999998 74.4082 21.601599999999998 -15.0995 22.8966 5.097 8.51928 4.3636 2.84894 -1.63716 -1.52886 0.838776 4.31473 8.87377 -1.84519 -1.81786 -30.4441 -4.77471 -0.0 0.0 0.0 -0.0 0.0 0.0 -3.97601e-14 3.29194e-13 -2.85256e-14 74.4284 25.8995 5.78726 -14.0257 -6.97516 25.6057 -0.147553 10.8848 1.54862 2.08746e-09 -5.0424e-09 1.21886e-09 3.61751e-09 -8.70659e-09 2.09606e-09 2.08747e-09 -5.0424e-09 1.21884e-09 7.73091 5.47488 0.417314 2.08746e-09 -5.0424e-09 1.21886e-09 2.90554 0.965183 0.102902 2.08747e-09 -5.0424e-09 1.21885e-09 10.2786 0.731801 0.0259123 2.08746e-09 -5.0424e-09 1.21886e-09 2.22167 -0.733487 -0.20892 -1.49418e-13 -4.11099e-13 1.2588e-13 -15.2289 -24.4086 14.9366 19.3038 -12.1606 -37.0155 0.0151961 -3.51719 0.494937 4.26001e-09 5.4233e-09 4.68426e-10 7.36092e-09 9.37692e-09 8.1974e-10 4.26e-09 5.42331e-09 4.68458e-10 -7.73091 5.47488 -0.417314 4.26001e-09 5.42331e-09 4.68435e-10 -2.90554 0.965183 -0.102902 4.26e-09 5.42331e-09 4.68429e-10 -10.2786 0.731801 -0.0259123 4.26001e-09 5.42331e-09 4.68423e-10 -2.22167 -0.733487 0.20892 -2.03217e-16 0.0 -3.88251e-19 -10.6395 -9.07879 -9.66771 -0.164505 33.5707 0.923926 -1.9911 -2.8372 -18.418 2.03217e-16 0.0 3.88251e-19 55.2662 -54.9169 49.897 1.27637 63.0771 -1.76687 -0.842443 -9.3886 -2.2116
-19.385599999999997 74.6834 22.0402 -15.1347 24.6074 4.8662 8.68653 3.99616 2.75781 -1.5218 -1.4525 0.80786 4.2363 8.85452 -2.04932 -1.87277 -30.2512 -5.18917 -0.0 0.0 0.0 -0.0 0.0 0.0 -4.77897e-14 3.28733e-13 -6.71057e-14 74.5542 25.6275 5.43089 -14.0666 -7.00777 25.6892 -0.137619 10.5264 1.49639 1.64724e-09 -3.36544e-09 6.44136e-10 2.85262e-09 -5.80864e-09 1.10476e-09 1.64725e-09 -3.36544e-09 6.44124e-10 7.73091 5.47488 0.417314 1.64724e-09 -3.36544e-09 6.44138e-10 2.90554 0.965183 0.102902 1.64725e-09 -3.36545e-09 6.44135e-10 10.2786 0.731801 0.0259123 1.64724e-09 -3.36545e-09 6.44143e-10 2.22167 -0.733487 -0.20892 -1.29388e-13 -4.00198e-13 1.20609e-13 -15.2451 -24.4927 14.8982 19.2734 -12.1245 -36.9438 0.0111317 -3.02284 0.425235 3.029e-09 3.98774e-09 4.50758e-10 5.23301e-09 6.89485e-09 7.86841e-10 3.02899e-09 3.98774e-09 4.50788e-10 -7.73091 5.47488 -0.417314 3.029e-09 3.98774e-09 4.50769e-10 -2.90554 0.965183 -0.102902 3.02899e-09 3.98774e-09 4.50763e-10 -10.2786 0.731801 -0.0259123 3.029e-09 3.98774e-09 4.50757e-10 -2.22167 -0.733487 0.20892 -2.03217e-16 0.0 -3.88251e-19 -10.1164 -7.89701 -9.45404 -0.157415 32.8717 0.888589 -1.50005 -1.14921 -18.8642 2.03217e-16 0.0 3.88251e-19 54.4782 -54.6952 50.6628 1.2528 62.7053 -1.71766 -0.558659 -9.46996 -1.55246
